<svg width="130" height="49" viewBox="0 0 130 49" fill="none" xmlns="http://www.w3.org/2000/svg">
<g clip-path="url(#clip0_79:43)">
<path d="M130 49.0036H99.7734C103.819 42.6165 107.872 36.23 111.932 29.8441C115.441 29.0184 118.928 28.1047 122.395 27.103L113.649 41.6436H122.622C127.539 41.6436 129.998 44.0969 129.998 49.0036" fill="#685BC7"/>
<path d="M129.797 14.8063L123.908 24.5898C120.571 25.3976 117.219 26.139 113.852 26.8139C114.838 25.2581 115.825 23.7024 116.812 22.1466H107.137C102.22 22.1466 99.7607 19.6932 99.7607 14.7865L129.797 14.8063Z" fill="#685BC7"/>
<path d="M97.4591 49.0036H67.2324L76.0197 35.1685C79.1863 34.971 82.3475 34.7029 85.5034 34.3643L81.1133 41.6435H90.0859C95.0038 41.6435 97.4627 44.0969 97.4627 49.0036" fill="#685BC7"/>
<path d="M97.2567 14.8063L87.6993 30.6932C84.5999 30.9924 81.4956 31.2365 78.3866 31.4256L84.2718 22.1592H74.5975C69.6796 22.1592 67.2207 19.7058 67.2207 14.7991L97.2567 14.8063Z" fill="#685BC7"/>
<path d="M64.9187 35.5706V39.8036C64.9187 45.9357 61.8468 49.0012 55.7031 49V35.4701C58.7738 35.5682 61.8456 35.6017 64.9187 35.5706" fill="#685BC7"/>
<path d="M64.9187 14.8063V31.8942C61.848 31.9217 58.7762 31.8942 55.7031 31.8116V24.0028C55.7031 17.873 58.775 14.8075 64.9187 14.8063" fill="#685BC7"/>
<path d="M60.3109 -0.00357056C61.4233 -0.00357056 62.5107 0.325544 63.4356 0.942153C64.3605 1.55876 65.0814 2.43517 65.5071 3.46056C65.9328 4.48594 66.0441 5.61425 65.8271 6.70279C65.6101 7.79133 65.0744 8.79122 64.2879 9.57602C63.5013 10.3608 62.4991 10.8953 61.4081 11.1118C60.3171 11.3283 59.1862 11.2172 58.1585 10.7925C57.1308 10.3677 56.2524 9.64848 55.6344 8.72565C55.0164 7.80283 54.6865 6.71789 54.6865 5.60802C54.6865 4.11973 55.2791 2.6924 56.3339 1.64003C57.3886 0.587649 58.8192 -0.00357056 60.3109 -0.00357056" fill="#685BC7"/>
<path d="M53.3984 14.8063C51.6483 20.3712 49.8965 25.9361 48.1429 31.501C45.2498 31.3395 42.359 31.1295 39.4707 30.871C40.2048 27.8575 40.9401 24.8435 41.6765 21.8289C42.8172 17.1484 45.8021 14.8081 50.6312 14.8081L53.3984 14.8063Z" fill="#685BC7"/>
<path d="M47.0383 35.0105C45.5702 39.6719 44.1026 44.3363 42.6357 49.0036H40.4892C35.6626 49.0036 32.6777 46.6634 31.5346 41.9828C30.8029 38.9814 30.07 35.9799 29.3359 32.9785C31.6245 33.3375 33.9167 33.66 36.2125 33.946C36.6323 35.6586 37.0521 37.3711 37.472 39.0837L38.654 34.2368C41.4464 34.5516 44.243 34.8113 47.0437 35.0159" fill="#685BC7"/>
<path d="M31.5457 14.8063C32.8172 20.0277 34.0904 25.2486 35.3655 30.4688C33.0865 30.2295 30.8075 29.959 28.5285 29.6574L26.6987 22.1627C26.1301 24.4988 25.561 26.8325 24.9912 29.1638C22.855 28.8514 20.7241 28.5127 18.5986 28.1477C19.1132 26.0414 19.6272 23.9339 20.1406 21.8252C21.2836 17.1447 24.2691 14.8045 29.097 14.8045L31.5457 14.8063Z" fill="#685BC7"/>
<path d="M24.2717 32.115C22.8995 37.7397 21.5261 43.3681 20.1515 49H17.5301C13.02 49 10.0891 46.853 8.73732 42.5591L3.96582 27.4045C7.1936 28.3177 10.4376 29.1554 13.6977 29.9177L15.9324 39.0729C16.6005 36.3347 17.2686 33.5966 17.9367 30.8584C20.0441 31.3072 22.1558 31.726 24.2717 32.115" fill="#685BC7"/>
<path d="M11.7218 21.8271C12.1537 23.5947 12.5849 25.3617 13.0155 27.1281C9.73732 26.4914 6.47175 25.7919 3.21878 25.0296C2.13926 21.6224 1.06633 18.2147 0 14.8063H2.76718C7.59626 14.8063 10.5811 17.1466 11.7218 21.8271Z" fill="#685BC7"/>
</g>
<defs>
<clipPath id="clip0_79:43">
<rect width="130" height="49" fill="white"/>
</clipPath>
</defs>
</svg>
